<svg width="24" height="6" viewBox="0 0 24 6" fill="none" xmlns="http://www.w3.org/2000/svg">
<path d="M3.42857 6C5.32212 6 6.85714 4.65685 6.85714 3C6.85714 1.34315 5.32212 0 3.42857 0C1.53502 0 0 1.34315 0 3C0 4.65685 1.53502 6 3.42857 6Z" fill="#8C8C8C"/>
<path d="M12 6C13.8935 6 15.4286 4.65685 15.4286 3C15.4286 1.34315 13.8935 0 12 0C10.1064 0 8.57141 1.34315 8.57141 3C8.57141 4.65685 10.1064 6 12 6Z" fill="#8C8C8C"/>
<path d="M20.5713 6C22.4648 6 23.9998 4.65685 23.9998 3C23.9998 1.34315 22.4648 0 20.5713 0C18.6777 0 17.1427 1.34315 17.1427 3C17.1427 4.65685 18.6777 6 20.5713 6Z" fill="#8C8C8C"/>
</svg>
