<svg width="24" height="24" viewBox="0 0 24 24" fill="none" xmlns="http://www.w3.org/2000/svg">
<path fill-rule="evenodd" clip-rule="evenodd" d="M12 0.00120004C5.37241 0.00120004 9.32878e-06 5.37353 9.32878e-06 12.001C-0.0021986 13.7692 0.387549 15.5159 1.14121 17.1154L0.0252092 22.5597C-0.0145239 22.7541 -0.00543616 22.9553 0.0516591 23.1453C0.108754 23.3353 0.212075 23.5082 0.352373 23.6485C0.492671 23.7888 0.665568 23.8921 0.855587 23.9492C1.04561 24.0063 1.24682 24.0154 1.44121 23.9757L6.88561 22.8597C8.43841 23.5917 10.1736 23.9997 12 23.9997C18.6276 23.9997 24 18.6286 24 11.9998C24 5.37353 18.6276 0 12 0V0.00120004Z" fill="#8C8C8C" fill-opacity="0.5"/>
</svg>
