<svg width="32" height="24" viewBox="0 0 32 24" fill="none" xmlns="http://www.w3.org/2000/svg">
<path d="M16 17.4545C18.5247 17.4545 20.5714 15.5009 20.5714 13.0909C20.5714 10.6809 18.5247 8.72726 16 8.72726C13.4753 8.72726 11.4286 10.6809 11.4286 13.0909C11.4286 15.5009 13.4753 17.4545 16 17.4545Z" fill="#8C8C8C" fill-opacity="0.85"/>
<path d="M30.2857 4.36364H24.3571C24.1429 4.36364 23.8771 4.23136 23.67 4.02273L21.7214 1.10455C20.9286 -2.60093e-07 20.5714 0 19.2857 0H12.7143C11.4286 0 11 0 10.2807 1.10523L8.33 4.02273C8.17143 4.18773 7.94857 4.36364 7.71429 4.36364V3.27273C7.71429 3.12806 7.65408 2.98933 7.54692 2.88703C7.43976 2.78474 7.29441 2.72727 7.14286 2.72727H4.28571C4.13416 2.72727 3.98882 2.78474 3.88165 2.88703C3.77449 2.98933 3.71429 3.12806 3.71429 3.27273V4.36364H1.71429C1.25963 4.36364 0.823594 4.53604 0.502103 4.84292C0.180612 5.14979 0 5.56601 0 6V22.3636C0 22.7976 0.180612 23.2138 0.502103 23.5207C0.823594 23.8276 1.25963 24 1.71429 24H30.2857C30.7404 24 31.1764 23.8276 31.4979 23.5207C31.8194 23.2138 32 22.7976 32 22.3636V6C32 5.56601 31.8194 5.14979 31.4979 4.84292C31.1764 4.53604 30.7404 4.36364 30.2857 4.36364ZM16.3221 19.6295C14.94 19.6915 13.5706 19.3529 12.3938 18.6583C11.217 17.9636 10.2879 16.9454 9.72856 15.7374C9.16921 14.5293 9.0058 13.1881 9.25979 11.8898C9.51378 10.5915 10.1733 9.39687 11.1517 8.46296C12.1301 7.52906 13.3815 6.89952 14.7417 6.65707C16.1018 6.41463 17.5069 6.57061 18.7725 7.10453C20.038 7.63845 21.1047 8.52533 21.8325 9.64864C22.5602 10.7719 22.9149 12.0791 22.85 13.3984C22.7681 15.0258 22.0541 16.5657 20.8472 17.7178C19.6403 18.8698 18.027 19.5514 16.3221 19.6295Z" fill="#8C8C8C" fill-opacity="0.85"/>
</svg>
