<svg width="24" height="24" viewBox="0 0 24 24" fill="none" xmlns="http://www.w3.org/2000/svg">
<path d="M4.2 6C3.72261 6 3.26477 5.81036 2.92721 5.47279C2.58964 5.13523 2.4 4.67739 2.4 4.2C2.4 3.72261 2.58964 3.26477 2.92721 2.92721C3.26477 2.58964 3.72261 2.4 4.2 2.4C4.67739 2.4 5.13523 2.58964 5.47279 2.92721C5.81036 3.26477 6 3.72261 6 4.2C6 4.67739 5.81036 5.13523 5.47279 5.47279C5.13523 5.81036 4.67739 6 4.2 6ZM23.292 11.496L12.492 0.696C12.06 0.264 11.46 0 10.8 0H2.4C1.068 0 0 1.068 0 2.4V10.8C0 11.46 0.264 12.06 0.708 12.492L11.496 23.292C11.94 23.724 12.54 24 13.2 24C13.86 24 14.46 23.724 14.892 23.292L23.292 14.892C23.736 14.46 24 13.86 24 13.2C24 12.528 23.724 11.928 23.292 11.496Z" fill="#8C8C8C" fill-opacity="0.85"/>
</svg>
