<svg width="24" height="24" viewBox="0 0 24 24" fill="none" xmlns="http://www.w3.org/2000/svg">
<path d="M4.94118 0C5.69002 0 6.4082 0.252856 6.93771 0.702944C7.46723 1.15303 7.76471 1.76348 7.76471 2.4C7.76471 3.03652 7.46723 3.64697 6.93771 4.09706C6.4082 4.54714 5.69002 4.8 4.94118 4.8C4.19233 4.8 3.47415 4.54714 2.94464 4.09706C2.41513 3.64697 2.11765 3.03652 2.11765 2.4C2.11765 1.76348 2.41513 1.15303 2.94464 0.702944C3.47415 0.252856 4.19233 0 4.94118 0ZM2.82353 6H7.05882C7.80767 6 8.52585 6.25286 9.05536 6.70294C9.58487 7.15303 9.88235 7.76348 9.88235 8.4V15H7.76471V24H2.11765V15H0V8.4C0 7.76348 0.297478 7.15303 0.826993 6.70294C1.35651 6.25286 2.07468 6 2.82353 6ZM17.6471 0C18.3959 0 19.1141 0.252856 19.6436 0.702944C20.1731 1.15303 20.4706 1.76348 20.4706 2.4C20.4706 3.03652 20.1731 3.64697 19.6436 4.09706C19.1141 4.54714 18.3959 4.8 17.6471 4.8C16.8982 4.8 16.18 4.54714 15.6505 4.09706C15.121 3.64697 14.8235 3.03652 14.8235 2.4C14.8235 1.76348 15.121 1.15303 15.6505 0.702944C16.18 0.252856 16.8982 0 17.6471 0ZM15.5294 24V16.8H11.2941L14.9506 7.692C15.3035 6.708 16.3765 6 17.6471 6C18.9176 6 19.9906 6.708 20.3435 7.692L24 16.8H19.7647V24H15.5294Z" fill="#ADBACE"/>
</svg>
