<svg width="24" height="24" viewBox="0 0 24 24" fill="none" xmlns="http://www.w3.org/2000/svg">
<path d="M11.9401 19.2C12.3601 19.2 12.7153 19.0548 13.0057 18.7644C13.2961 18.474 13.4409 18.1192 13.4401 17.7C13.4401 17.28 13.2953 16.9248 13.0057 16.6344C12.7161 16.344 12.3609 16.1992 11.9401 16.2C11.5201 16.2 11.1653 16.3452 10.8757 16.6356C10.5861 16.926 10.4409 17.2808 10.4401 17.7C10.4401 18.12 10.5853 18.4752 10.8757 18.7656C11.1661 19.056 11.5209 19.2008 11.9401 19.2ZM10.8601 14.58H13.0801C13.0801 13.92 13.1553 13.4 13.3057 13.02C13.4561 12.64 13.8809 12.12 14.5801 11.46C15.1001 10.94 15.5101 10.4448 15.8101 9.9744C16.1101 9.504 16.2601 8.9392 16.2601 8.28C16.2601 7.16 15.8501 6.3 15.0301 5.7C14.2101 5.1 13.2401 4.8 12.1201 4.8C10.9801 4.8 10.0549 5.1 9.34447 5.7C8.63407 6.3 8.13927 7.02 7.86007 7.86L9.84007 8.64C9.94007 8.28 10.1653 7.89 10.5157 7.47C10.8661 7.05 11.4009 6.84 12.1201 6.84C12.7601 6.84 13.2401 7.0152 13.5601 7.3656C13.8801 7.716 14.0401 8.1008 14.0401 8.52C14.0401 8.92 13.9201 9.2952 13.6801 9.6456C13.4401 9.996 13.1401 10.3208 12.7801 10.62C11.9001 11.4 11.3601 11.99 11.1601 12.39C10.9601 12.79 10.8601 13.52 10.8601 14.58ZM12.0001 24C10.3401 24 8.78007 23.6848 7.32007 23.0544C5.86007 22.424 4.59007 21.5692 3.51007 20.49C2.43006 19.41 1.57526 18.14 0.945662 16.68C0.316062 15.22 0.000861036 13.66 6.10352e-05 12C6.10352e-05 10.34 0.315262 8.78 0.945662 7.32C1.57606 5.86 2.43086 4.59 3.51007 3.51C4.59007 2.43 5.86007 1.5752 7.32007 0.9456C8.78007 0.316 10.3401 0.0008 12.0001 0C13.6601 0 15.2201 0.3152 16.6801 0.9456C18.1401 1.576 19.4101 2.4308 20.4901 3.51C21.5701 4.59 22.4253 5.86 23.0557 7.32C23.6861 8.78 24.0009 10.34 24.0001 12C24.0001 13.66 23.6849 15.22 23.0545 16.68C22.4241 18.14 21.5693 19.41 20.4901 20.49C19.4101 21.57 18.1401 22.4252 16.6801 23.0556C15.2201 23.686 13.6601 24.0008 12.0001 24Z" fill="#8C8C8C"/>
</svg>
