<svg width="22" height="22" viewBox="0 0 22 22" fill="none" xmlns="http://www.w3.org/2000/svg">
<g filter="url(#filter0_i_319_21)">
<path d="M13.945 0.25C12.578 0.25 11.475 0.25 10.608 0.367C9.70802 0.487 8.95002 0.747 8.34802 1.348C7.82402 1.873 7.55802 2.518 7.41902 3.276C7.28402 4.013 7.25802 4.914 7.25202 5.996C7.25096 6.19491 7.32896 6.3861 7.46887 6.5275C7.60877 6.6689 7.79911 6.74894 7.99803 6.75C8.19694 6.75106 8.38812 6.67306 8.52953 6.53316C8.67093 6.39326 8.75096 6.20291 8.75202 6.004C8.75802 4.911 8.78603 4.136 8.89403 3.547C8.99903 2.981 9.16603 2.652 9.40903 2.409C9.68603 2.132 10.075 1.952 10.809 1.853C11.564 1.752 12.565 1.75 14 1.75H15C16.436 1.75 17.437 1.752 18.192 1.853C18.926 1.952 19.314 2.133 19.592 2.409C19.868 2.686 20.048 3.074 20.147 3.809C20.249 4.563 20.25 5.565 20.25 7V15C20.25 16.435 20.249 17.436 20.147 18.192C20.048 18.926 19.868 19.314 19.591 19.591C19.314 19.868 18.926 20.048 18.192 20.147C17.437 20.248 16.436 20.25 15 20.25H14C12.565 20.25 11.564 20.248 10.808 20.147C10.075 20.048 9.68603 19.867 9.40903 19.591C9.16603 19.347 8.99903 19.019 8.89403 18.453C8.78603 17.864 8.75802 17.089 8.75202 15.996C8.7515 15.8975 8.73158 15.8001 8.6934 15.7093C8.65523 15.6185 8.59954 15.5361 8.52953 15.4668C8.45951 15.3976 8.37654 15.3428 8.28534 15.3056C8.19415 15.2684 8.09652 15.2495 7.99803 15.25C7.89953 15.2505 7.80211 15.2704 7.71132 15.3086C7.62052 15.3468 7.53814 15.4025 7.46887 15.4725C7.39959 15.5425 7.34479 15.6255 7.30758 15.7167C7.27038 15.8079 7.2515 15.9055 7.25202 16.004C7.25802 17.086 7.28402 17.987 7.41902 18.724C7.55902 19.482 7.82403 20.127 8.34903 20.652C8.95003 21.254 9.70903 21.512 10.609 21.634C11.475 21.75 12.578 21.75 13.945 21.75H15.055C16.423 21.75 17.525 21.75 18.392 21.634C19.292 21.512 20.05 21.254 20.652 20.652C21.254 20.05 21.512 19.292 21.634 18.392C21.75 17.525 21.75 16.422 21.75 15.055V6.945C21.75 5.578 21.75 4.475 21.634 3.608C21.513 2.708 21.254 1.95 20.652 1.348C20.05 0.746 19.292 0.488 18.392 0.367C17.525 0.25 16.422 0.25 15.055 0.25H13.945Z" fill="#F97070"/>
</g>
<g filter="url(#filter1_i_319_21)">
<path d="M14 10.25C14.1989 10.25 14.3897 10.329 14.5303 10.4697C14.671 10.6103 14.75 10.8011 14.75 11C14.75 11.1989 14.671 11.3897 14.5303 11.5303C14.3897 11.671 14.1989 11.75 14 11.75H3.02701L4.98801 13.43C5.13918 13.5594 5.23275 13.7436 5.24813 13.942C5.2635 14.1404 5.19943 14.3368 5.07001 14.488C4.94058 14.6392 4.7564 14.7327 4.55799 14.7481C4.35958 14.7635 4.16318 14.6994 4.01201 14.57L0.512008 11.57C0.429674 11.4996 0.36357 11.4122 0.318245 11.3138C0.27292 11.2154 0.249451 11.1083 0.249451 11C0.249451 10.8917 0.27292 10.7846 0.318245 10.6862C0.36357 10.5878 0.429674 10.5004 0.512008 10.43L4.01201 7.43C4.08686 7.36591 4.1736 7.3172 4.26728 7.28664C4.36096 7.25607 4.45975 7.24426 4.55799 7.25188C4.65624 7.25949 4.75202 7.28638 4.83987 7.33101C4.92772 7.37565 5.00592 7.43714 5.07001 7.512C5.13409 7.58685 5.18281 7.67359 5.21337 7.76727C5.24393 7.86095 5.25574 7.95973 5.24813 8.05798C5.24051 8.15622 5.21362 8.25201 5.16899 8.33986C5.12436 8.42771 5.06286 8.50591 4.98801 8.57L3.02801 10.25H14Z" fill="#F97070"/>
</g>
<defs>
<filter id="filter0_i_319_21" x="7.25201" y="0.25" width="14.498" height="25.5" filterUnits="userSpaceOnUse" color-interpolation-filters="sRGB">
<feFlood flood-opacity="0" result="BackgroundImageFix"/>
<feBlend mode="normal" in="SourceGraphic" in2="BackgroundImageFix" result="shape"/>
<feColorMatrix in="SourceAlpha" type="matrix" values="0 0 0 0 0 0 0 0 0 0 0 0 0 0 0 0 0 0 127 0" result="hardAlpha"/>
<feOffset dy="4"/>
<feGaussianBlur stdDeviation="2"/>
<feComposite in2="hardAlpha" operator="arithmetic" k2="-1" k3="1"/>
<feColorMatrix type="matrix" values="0 0 0 0 0 0 0 0 0 0 0 0 0 0 0 0 0 0 0.25 0"/>
<feBlend mode="normal" in2="shape" result="effect1_innerShadow_319_21"/>
</filter>
<filter id="filter1_i_319_21" x="0.249451" y="7.24963" width="14.5005" height="11.5007" filterUnits="userSpaceOnUse" color-interpolation-filters="sRGB">
<feFlood flood-opacity="0" result="BackgroundImageFix"/>
<feBlend mode="normal" in="SourceGraphic" in2="BackgroundImageFix" result="shape"/>
<feColorMatrix in="SourceAlpha" type="matrix" values="0 0 0 0 0 0 0 0 0 0 0 0 0 0 0 0 0 0 127 0" result="hardAlpha"/>
<feOffset dy="4"/>
<feGaussianBlur stdDeviation="2"/>
<feComposite in2="hardAlpha" operator="arithmetic" k2="-1" k3="1"/>
<feColorMatrix type="matrix" values="0 0 0 0 0 0 0 0 0 0 0 0 0 0 0 0 0 0 0.25 0"/>
<feBlend mode="normal" in2="shape" result="effect1_innerShadow_319_21"/>
</filter>
</defs>
</svg>
