<svg width="24" height="24" viewBox="0 0 24 24" fill="none" xmlns="http://www.w3.org/2000/svg">
<path d="M17.3334 1.26654e-07C18.0062 -0.000201574 18.6542 0.240513 19.1475 0.673891C19.6408 1.10727 19.943 1.70128 19.9934 2.33684L20.0001 2.52632V8.8421H22.0001C22.4973 8.84213 22.9766 9.01758 23.3447 9.33426C23.7127 9.65093 23.943 10.0861 23.9908 10.5549L24.0001 10.7368V20.2105C24.0002 21.1771 23.6103 22.1072 22.9104 22.8104C22.2104 23.5137 21.2533 23.937 20.2348 23.9937L20.0001 24H2.66673C1.99396 24.0002 1.34597 23.7595 0.852665 23.3261C0.359356 22.8927 0.0571857 22.2987 0.006728 21.6632L6.11688e-05 21.4737V2.52632C-0.000151737 1.88896 0.253937 1.27507 0.711391 0.807729C1.16885 0.340384 1.79586 0.054118 2.46673 0.00631606L2.66673 1.26654e-07H17.3334ZM21.3334 11.3684H20.0001V21.4737C20.3537 21.4737 20.6929 21.3406 20.9429 21.1037C21.193 20.8668 21.3334 20.5455 21.3334 20.2105V11.3684ZM10.6667 12.6316H6.66674C6.3269 12.6319 6.00003 12.7552 5.75291 12.9762C5.5058 13.1972 5.35709 13.4993 5.33717 13.8207C5.31726 14.1421 5.42764 14.4586 5.64576 14.7055C5.86388 14.9524 6.17328 15.111 6.51074 15.1491L6.66674 15.1579H10.6667C11.0066 15.1575 11.3335 15.0343 11.5806 14.8132C11.8277 14.5922 11.9764 14.2902 11.9963 13.9688C12.0162 13.6474 11.9058 13.3309 11.6877 13.084C11.4696 12.8371 11.1602 12.6784 10.8227 12.6404L10.6667 12.6316ZM13.3334 6.31579H6.66674C6.31312 6.31579 5.97398 6.44887 5.72393 6.68576C5.47388 6.92265 5.3334 7.24394 5.3334 7.57895C5.3334 7.91396 5.47388 8.23525 5.72393 8.47213C5.97398 8.70902 6.31312 8.8421 6.66674 8.8421H13.3334C13.687 8.8421 14.0262 8.70902 14.2762 8.47213C14.5263 8.23525 14.6667 7.91396 14.6667 7.57895C14.6667 7.24394 14.5263 6.92265 14.2762 6.68576C14.0262 6.44887 13.687 6.31579 13.3334 6.31579Z" fill="#6876A9"/>
</svg>
