<svg width="24" height="24" viewBox="0 0 24 24" fill="none" xmlns="http://www.w3.org/2000/svg">
<path d="M12.0001 24C8.93341 24 6.26096 22.9831 3.98273 20.9493C1.70451 18.9156 0.399173 16.3769 0.0667277 13.3333H2.80006C3.11118 15.6444 4.13918 17.5556 5.88407 19.0667C7.62896 20.5778 9.66763 21.3333 12.0001 21.3333C14.6001 21.3333 16.8059 20.4276 18.6174 18.616C20.429 16.8044 21.3343 14.5991 21.3334 12C21.3334 9.4 20.4276 7.19422 18.6161 5.38267C16.8045 3.57111 14.5992 2.66578 12.0001 2.66667C10.4667 2.66667 9.03341 3.02222 7.70007 3.73333C6.36674 4.44444 5.24451 5.42222 4.3334 6.66667H8.00007V9.33333H6.10352e-05V1.33333H2.66673V4.46667C3.80007 3.04444 5.18362 1.94444 6.8174 1.16667C8.45118 0.388889 10.1787 0 12.0001 0C13.6667 0 15.2281 0.316889 16.6841 0.950667C18.1401 1.58444 19.4068 2.43956 20.4841 3.516C21.5614 4.59422 22.417 5.86089 23.0508 7.316C23.6845 8.77111 24.001 10.3324 24.0001 12C24.0001 13.6667 23.6832 15.228 23.0494 16.684C22.4156 18.14 21.5605 19.4067 20.4841 20.484C19.4059 21.5613 18.1392 22.4169 16.6841 23.0507C15.229 23.6844 13.6676 24.0009 12.0001 24ZM15.7334 17.6L10.6667 12.5333V5.33333H13.3334V11.4667L17.6001 15.7333L15.7334 17.6Z" fill="#D2D2D2"/>
</svg>
