<svg width="32" height="32" viewBox="0 0 32 32" fill="none" xmlns="http://www.w3.org/2000/svg">
<path d="M32.0001 16C32.0001 24.8365 24.8365 32 16 32C7.16346 32 0 24.8365 0 16C0 7.16344 7.16346 0 16 0C24.8365 0 32.0001 7.16344 32.0001 16ZM19.2485 8.75147C18.7799 8.28285 18.0202 8.28285 17.5516 8.75147L11.1515 15.1515C10.6829 15.6202 10.6829 16.3798 11.1515 16.8485L17.5516 23.2485C18.0202 23.7171 18.7799 23.7171 19.2485 23.2485C19.7172 22.7798 19.7172 22.0202 19.2485 21.5515L13.6972 16L19.2485 10.4485C19.7172 9.9799 19.7172 9.2201 19.2485 8.75147Z" fill="#2F2F2F"/>
</svg>
