<svg width="24" height="24" viewBox="0 0 24 24" fill="none" xmlns="http://www.w3.org/2000/svg">
<path d="M24.0002 22.7448L17.2961 16.0408C18.9072 14.1067 19.7105 11.626 19.5391 9.11474C19.3677 6.60346 18.2347 4.25494 16.3758 2.55775C14.5169 0.86055 12.0753 -0.0546525 9.55878 0.00252659C7.0423 0.0597056 4.64474 1.08486 2.86487 2.86474C1.08499 4.64462 0.0598278 7.04217 0.00264866 9.55864C-0.0545305 12.0751 0.860674 14.5168 2.55787 16.3756C4.25507 18.2345 6.60359 19.3675 9.11488 19.5389C11.6262 19.7104 14.1069 18.907 16.0409 17.296L22.7449 24L24.0002 22.7448ZM1.8073 9.79659C1.8073 8.21643 2.27587 6.67176 3.15376 5.35791C4.03165 4.04405 5.27943 3.02003 6.7393 2.41533C8.19918 1.81063 9.80559 1.65241 11.3554 1.96069C12.9052 2.26896 14.3288 3.02988 15.4461 4.14722C16.5634 5.26456 17.3244 6.68814 17.6326 8.23793C17.9409 9.78773 17.7827 11.3941 17.178 12.854C16.5733 14.3139 15.5493 15.5617 14.2354 16.4395C12.9216 17.3174 11.3769 17.786 9.79673 17.786C7.67852 17.7837 5.64774 16.9412 4.14994 15.4434C2.65214 13.9456 1.80965 11.9148 1.8073 9.79659Z" fill="#8C8C8C"/>
</svg>
