<svg width="24" height="24" viewBox="0 0 24 24" fill="none" xmlns="http://www.w3.org/2000/svg">
<path d="M21.175 13.175C21.2264 12.8 21.2521 12.4125 21.2521 12C21.2521 11.6 21.2264 11.2 21.1622 10.825L23.7708 8.85C23.8832 8.75988 23.96 8.63462 23.9881 8.49559C24.0163 8.35655 23.9939 8.21233 23.925 8.0875L21.4578 3.9375C21.3851 3.81196 21.2691 3.71547 21.1304 3.66514C20.9916 3.61481 20.839 3.61387 20.6996 3.6625L17.6284 4.8625C16.9859 4.3875 16.3048 3.9875 15.5466 3.6875L15.084 0.512503C15.0613 0.369416 14.9865 0.239013 14.8733 0.144974C14.7601 0.0509351 14.6161 -0.000501881 14.4672 3.69175e-06H9.53271C9.2243 3.69175e-06 8.98014 0.212503 8.92874 0.512503L8.46613 3.6875C7.70797 3.9875 7.01405 4.4 6.38439 4.8625L3.31318 3.6625C3.03047 3.5625 2.70922 3.6625 2.55501 3.9375L0.100612 8.0875C-0.0535913 8.35 -0.00219041 8.675 0.254815 8.85L2.86342 10.825C2.79917 11.2 2.74777 11.6125 2.74777 12C2.74777 12.3875 2.77347 12.8 2.83772 13.175L0.229114 15.15C0.116705 15.2401 0.039899 15.3654 0.0117811 15.5044C-0.0163367 15.6435 0.00597381 15.7877 0.0749114 15.9125L2.54216 20.0625C2.69637 20.3375 3.01762 20.425 3.30033 20.3375L6.37154 19.1375C7.01405 19.6125 7.69512 20.0125 8.45328 20.3125L8.91589 23.4875C8.98015 23.7875 9.2243 24 9.53271 24H14.4672C14.7756 24 15.0326 23.7875 15.0712 23.4875L15.5338 20.3125C16.2919 20.0125 16.9859 19.6125 17.6155 19.1375L20.6867 20.3375C20.9694 20.4375 21.2907 20.3375 21.4449 20.0625L23.9122 15.9125C24.0664 15.6375 24.0021 15.325 23.7579 15.15L21.175 13.175ZM12 16.5C9.4556 16.5 7.37386 14.475 7.37386 12C7.37386 9.525 9.4556 7.5 12 7.5C14.5443 7.5 16.6261 9.525 16.6261 12C16.6261 14.475 14.5443 16.5 12 16.5Z" fill="#8C8C8C"/>
</svg>
