<svg width="32" height="8" viewBox="0 0 32 8" fill="none" xmlns="http://www.w3.org/2000/svg">
<path d="M9.04286 4C9.04286 6.14179 7.05389 7.9 4.57143 7.9C2.08897 7.9 0.1 6.14179 0.1 4C0.1 1.85821 2.08897 0.1 4.57143 0.1C7.05389 0.1 9.04286 1.85821 9.04286 4Z" fill="white" stroke="black" stroke-width="0.2"/>
<path d="M20.4714 4C20.4714 6.14179 18.4825 7.9 16 7.9C13.5176 7.9 11.5286 6.14179 11.5286 4C11.5286 1.85821 13.5176 0.1 16 0.1C18.4825 0.1 20.4714 1.85821 20.4714 4Z" fill="white" stroke="black" stroke-width="0.2"/>
<path d="M31.8998 4C31.8998 6.14179 29.9108 7.9 27.4284 7.9C24.9459 7.9 22.9569 6.14179 22.9569 4C22.9569 1.85821 24.9459 0.1 27.4284 0.1C29.9108 0.1 31.8998 1.85821 31.8998 4Z" fill="white" stroke="black" stroke-width="0.2"/>
</svg>
