<svg width="20" height="6" viewBox="0 0 20 6" fill="none" xmlns="http://www.w3.org/2000/svg">
<path d="M3.12946 5.33333C4.66797 5.33333 5.91518 4.13943 5.91518 2.66667C5.91518 1.19391 4.66797 0 3.12946 0C1.59096 0 0.34375 1.19391 0.34375 2.66667C0.34375 4.13943 1.59096 5.33333 3.12946 5.33333Z" fill="#8C8C8C"/>
<path d="M10.0938 5.33333C11.6323 5.33333 12.8795 4.13943 12.8795 2.66667C12.8795 1.19391 11.6323 0 10.0938 0C8.55525 0 7.30804 1.19391 7.30804 2.66667C7.30804 4.13943 8.55525 5.33333 10.0938 5.33333Z" fill="#8C8C8C"/>
<path d="M17.0579 5.33333C18.5964 5.33333 19.8436 4.13943 19.8436 2.66667C19.8436 1.19391 18.5964 0 17.0579 0C15.5194 0 14.2722 1.19391 14.2722 2.66667C14.2722 4.13943 15.5194 5.33333 17.0579 5.33333Z" fill="#8C8C8C"/>
</svg>
