<svg width="28" height="24" viewBox="0 0 28 24" fill="none" xmlns="http://www.w3.org/2000/svg">
<path fill-rule="evenodd" clip-rule="evenodd" d="M21.3313 2.44936C21.6238 2.3282 21.9441 2.28642 22.2586 2.32835C22.5732 2.37028 22.8706 2.4944 23.1199 2.68778C23.3691 2.88116 23.5611 3.13674 23.6759 3.42791C23.7907 3.71908 23.8241 4.0352 23.7726 4.34336L21.0874 20.3678C20.8269 21.9136 19.103 22.8 17.6622 22.0301C16.4569 21.3859 14.6668 20.3935 13.0566 19.3579C12.2515 18.8396 9.78529 17.1797 10.0884 15.9986C10.3489 14.9887 14.4927 11.1937 16.8606 8.93743C17.79 8.051 17.3662 7.53964 16.2687 8.35502C13.542 10.3795 9.16726 13.4581 7.72046 14.3247C6.44416 15.0889 5.77877 15.2193 4.98315 15.0889C3.53162 14.8512 2.18546 14.4832 1.08674 14.0347C-0.397943 13.429 -0.325721 11.4208 1.08556 10.8361L21.3313 2.44936Z" fill="#8C8C8C"/>
</svg>
